<mxfile host="app.diagrams.net" modified="2023-10-09T02:09:22.167Z" agent="Mozilla/5.0 (Windows NT 10.0; Win64; x64) AppleWebKit/537.36 (KHTML, like Gecko) Chrome/117.0.0.0 Safari/537.36" etag="yP2awpiMEww3L2XcLMhV" version="22.0.4" type="device">
  <diagram name="Page-1" id="xDzLEZ91XitJF2c4ddua">
    <mxGraphModel dx="1235" dy="741" grid="1" gridSize="10" guides="1" tooltips="1" connect="1" arrows="1" fold="1" page="1" pageScale="1" pageWidth="850" pageHeight="1100" math="0" shadow="0">
      <root>
        <mxCell id="0" />
        <mxCell id="1" parent="0" />
        <mxCell id="1lRxiJJCia6EpEkpalD3-6" style="edgeStyle=orthogonalEdgeStyle;rounded=0;orthogonalLoop=1;jettySize=auto;html=1;exitX=0.5;exitY=1;exitDx=0;exitDy=0;entryX=0.5;entryY=0;entryDx=0;entryDy=0;" edge="1" parent="1" source="1lRxiJJCia6EpEkpalD3-2" target="1lRxiJJCia6EpEkpalD3-4">
          <mxGeometry relative="1" as="geometry" />
        </mxCell>
        <mxCell id="1lRxiJJCia6EpEkpalD3-2" value="Start" style="ellipse;whiteSpace=wrap;html=1;aspect=fixed;" vertex="1" parent="1">
          <mxGeometry x="80" y="120" width="80" height="80" as="geometry" />
        </mxCell>
        <mxCell id="1lRxiJJCia6EpEkpalD3-3" value="End" style="ellipse;whiteSpace=wrap;html=1;aspect=fixed;" vertex="1" parent="1">
          <mxGeometry x="760" y="170" width="80" height="80" as="geometry" />
        </mxCell>
        <mxCell id="1lRxiJJCia6EpEkpalD3-26" style="edgeStyle=orthogonalEdgeStyle;rounded=0;orthogonalLoop=1;jettySize=auto;html=1;entryX=0;entryY=0.5;entryDx=0;entryDy=0;" edge="1" parent="1" source="1lRxiJJCia6EpEkpalD3-4">
          <mxGeometry relative="1" as="geometry">
            <mxPoint x="300" y="290" as="targetPoint" />
          </mxGeometry>
        </mxCell>
        <mxCell id="1lRxiJJCia6EpEkpalD3-39" style="edgeStyle=orthogonalEdgeStyle;rounded=0;orthogonalLoop=1;jettySize=auto;html=1;exitX=0.75;exitY=0;exitDx=0;exitDy=0;entryX=0.5;entryY=1;entryDx=0;entryDy=0;dashed=1;dashPattern=8 8;" edge="1" parent="1" source="1lRxiJJCia6EpEkpalD3-4" target="1lRxiJJCia6EpEkpalD3-13">
          <mxGeometry relative="1" as="geometry" />
        </mxCell>
        <mxCell id="1lRxiJJCia6EpEkpalD3-4" value="Rover sends Credentials to Server" style="rounded=1;whiteSpace=wrap;html=1;" vertex="1" parent="1">
          <mxGeometry x="40" y="260" width="160" height="60" as="geometry" />
        </mxCell>
        <mxCell id="1lRxiJJCia6EpEkpalD3-15" style="edgeStyle=orthogonalEdgeStyle;rounded=0;orthogonalLoop=1;jettySize=auto;html=1;entryX=1;entryY=0.5;entryDx=0;entryDy=0;" edge="1" parent="1" source="1lRxiJJCia6EpEkpalD3-13" target="1lRxiJJCia6EpEkpalD3-14">
          <mxGeometry relative="1" as="geometry" />
        </mxCell>
        <mxCell id="1lRxiJJCia6EpEkpalD3-13" value="Note request attempt count" style="rounded=1;whiteSpace=wrap;html=1;" vertex="1" parent="1">
          <mxGeometry x="320" y="130" width="120" height="60" as="geometry" />
        </mxCell>
        <mxCell id="1lRxiJJCia6EpEkpalD3-16" style="edgeStyle=orthogonalEdgeStyle;rounded=0;orthogonalLoop=1;jettySize=auto;html=1;exitX=0;exitY=0.5;exitDx=0;exitDy=0;entryX=1;entryY=0.5;entryDx=0;entryDy=0;" edge="1" parent="1" source="1lRxiJJCia6EpEkpalD3-14" target="1lRxiJJCia6EpEkpalD3-2">
          <mxGeometry relative="1" as="geometry" />
        </mxCell>
        <mxCell id="1lRxiJJCia6EpEkpalD3-20" style="edgeStyle=orthogonalEdgeStyle;rounded=0;orthogonalLoop=1;jettySize=auto;html=1;exitX=0.5;exitY=0;exitDx=0;exitDy=0;entryX=0;entryY=0.5;entryDx=0;entryDy=0;" edge="1" parent="1" source="1lRxiJJCia6EpEkpalD3-14" target="1lRxiJJCia6EpEkpalD3-17">
          <mxGeometry relative="1" as="geometry">
            <mxPoint x="570" y="40" as="targetPoint" />
          </mxGeometry>
        </mxCell>
        <mxCell id="1lRxiJJCia6EpEkpalD3-14" value="&amp;gt;3" style="rhombus;whiteSpace=wrap;html=1;" vertex="1" parent="1">
          <mxGeometry x="180" y="120" width="80" height="80" as="geometry" />
        </mxCell>
        <mxCell id="1lRxiJJCia6EpEkpalD3-56" style="edgeStyle=orthogonalEdgeStyle;rounded=0;orthogonalLoop=1;jettySize=auto;html=1;entryX=0.5;entryY=0;entryDx=0;entryDy=0;" edge="1" parent="1" source="1lRxiJJCia6EpEkpalD3-17" target="1lRxiJJCia6EpEkpalD3-3">
          <mxGeometry relative="1" as="geometry" />
        </mxCell>
        <mxCell id="1lRxiJJCia6EpEkpalD3-17" value="Send failed attempt to Server" style="rounded=1;whiteSpace=wrap;html=1;" vertex="1" parent="1">
          <mxGeometry x="580" y="50" width="120" height="60" as="geometry" />
        </mxCell>
        <mxCell id="1lRxiJJCia6EpEkpalD3-21" value="No" style="text;html=1;strokeColor=none;fillColor=none;align=center;verticalAlign=middle;whiteSpace=wrap;rounded=0;" vertex="1" parent="1">
          <mxGeometry x="140" y="160" width="60" height="30" as="geometry" />
        </mxCell>
        <mxCell id="1lRxiJJCia6EpEkpalD3-22" value="Yes" style="text;html=1;strokeColor=none;fillColor=none;align=center;verticalAlign=middle;whiteSpace=wrap;rounded=0;" vertex="1" parent="1">
          <mxGeometry x="210" y="50" width="60" height="30" as="geometry" />
        </mxCell>
        <mxCell id="1lRxiJJCia6EpEkpalD3-42" style="edgeStyle=orthogonalEdgeStyle;rounded=0;orthogonalLoop=1;jettySize=auto;html=1;exitX=0.5;exitY=0;exitDx=0;exitDy=0;entryX=0.5;entryY=1;entryDx=0;entryDy=0;dashed=1;dashPattern=8 8;" edge="1" parent="1" source="1lRxiJJCia6EpEkpalD3-28" target="1lRxiJJCia6EpEkpalD3-13">
          <mxGeometry relative="1" as="geometry" />
        </mxCell>
        <mxCell id="1lRxiJJCia6EpEkpalD3-44" style="edgeStyle=orthogonalEdgeStyle;rounded=0;orthogonalLoop=1;jettySize=auto;html=1;" edge="1" parent="1" source="1lRxiJJCia6EpEkpalD3-28" target="1lRxiJJCia6EpEkpalD3-43">
          <mxGeometry relative="1" as="geometry" />
        </mxCell>
        <mxCell id="1lRxiJJCia6EpEkpalD3-28" value="Rover sends data update" style="rounded=1;whiteSpace=wrap;html=1;" vertex="1" parent="1">
          <mxGeometry x="300" y="260" width="160" height="60" as="geometry" />
        </mxCell>
        <mxCell id="1lRxiJJCia6EpEkpalD3-47" style="edgeStyle=orthogonalEdgeStyle;rounded=0;orthogonalLoop=1;jettySize=auto;html=1;exitX=0.5;exitY=0;exitDx=0;exitDy=0;dashed=1;dashPattern=8 8;" edge="1" parent="1" source="1lRxiJJCia6EpEkpalD3-43">
          <mxGeometry relative="1" as="geometry">
            <mxPoint x="380" y="190" as="targetPoint" />
          </mxGeometry>
        </mxCell>
        <mxCell id="1lRxiJJCia6EpEkpalD3-49" style="edgeStyle=orthogonalEdgeStyle;rounded=0;orthogonalLoop=1;jettySize=auto;html=1;" edge="1" parent="1" source="1lRxiJJCia6EpEkpalD3-43">
          <mxGeometry relative="1" as="geometry">
            <mxPoint x="640" y="380" as="targetPoint" />
          </mxGeometry>
        </mxCell>
        <mxCell id="1lRxiJJCia6EpEkpalD3-43" value="Rover moves based on returned packet" style="rounded=1;whiteSpace=wrap;html=1;" vertex="1" parent="1">
          <mxGeometry x="560" y="260" width="160" height="60" as="geometry" />
        </mxCell>
        <mxCell id="1lRxiJJCia6EpEkpalD3-51" style="edgeStyle=orthogonalEdgeStyle;rounded=0;orthogonalLoop=1;jettySize=auto;html=1;entryX=0.5;entryY=1;entryDx=0;entryDy=0;" edge="1" parent="1" source="1lRxiJJCia6EpEkpalD3-50" target="1lRxiJJCia6EpEkpalD3-28">
          <mxGeometry relative="1" as="geometry" />
        </mxCell>
        <mxCell id="1lRxiJJCia6EpEkpalD3-52" style="edgeStyle=orthogonalEdgeStyle;rounded=0;orthogonalLoop=1;jettySize=auto;html=1;entryX=0.5;entryY=1;entryDx=0;entryDy=0;" edge="1" parent="1" source="1lRxiJJCia6EpEkpalD3-50" target="1lRxiJJCia6EpEkpalD3-3">
          <mxGeometry relative="1" as="geometry" />
        </mxCell>
        <mxCell id="1lRxiJJCia6EpEkpalD3-50" value="Arrived?" style="rhombus;whiteSpace=wrap;html=1;" vertex="1" parent="1">
          <mxGeometry x="600" y="380" width="80" height="80" as="geometry" />
        </mxCell>
        <mxCell id="1lRxiJJCia6EpEkpalD3-53" value="Yes" style="text;html=1;strokeColor=none;fillColor=none;align=center;verticalAlign=middle;whiteSpace=wrap;rounded=0;" vertex="1" parent="1">
          <mxGeometry x="680" y="390" width="60" height="30" as="geometry" />
        </mxCell>
        <mxCell id="1lRxiJJCia6EpEkpalD3-55" value="No" style="text;html=1;strokeColor=none;fillColor=none;align=center;verticalAlign=middle;whiteSpace=wrap;rounded=0;" vertex="1" parent="1">
          <mxGeometry x="550" y="390" width="60" height="30" as="geometry" />
        </mxCell>
      </root>
    </mxGraphModel>
  </diagram>
</mxfile>
